{"asset":{"generator":"Foundry Modo 16.1v7","version":"2.0"},"extensionsUsed":["KHR_texture_transform"],"scene":0,"scenes":[{"nodes":[0,1]}],"nodes":[{"name":"door_01_a","mesh":0},{"name":"Camera","matrix":[1.0,0.0,0.0,0.0,0.0,0.9961947202682495,-0.08715574443340302,0.0,0.0,0.08715574443340302,0.9961947202682495,0.0,0.0,0.75,4.0,1.0],"camera":0}],"meshes":[{"primitives":[{"indices":1,"mode":4,"material":1,"attributes":{"POSITION":0,"NORMAL":2,"TEXCOORD_0":3}},{"indices":5,"mode":4,"material":2,"attributes":{"POSITION":4,"NORMAL":6,"TEXCOORD_0":7}}]}],"buffers":[{"byteLength":36320,"uri":"door_01_a.bin"}],"bufferViews":[{"buffer":0,"byteLength":864},{"buffer":0,"byteLength":672,"byteOffset":864},{"buffer":0,"byteLength":864,"byteOffset":1536},{"buffer":0,"byteLength":576,"byteOffset":2400},{"buffer":0,"byteLength":7752,"byteOffset":2976},{"buffer":0,"byteLength":12672,"byteOffset":10728},{"buffer":0,"byteLength":7752,"byteOffset":23400},{"buffer":0,"byteLength":5168,"byteOffset":31152}],"accessors":[{"bufferView":0,"type":"VEC3","componentType":5126,"count":72,"min":[0.008404655382037163,0.014999947510659695,-0.24855709075927735],"max":[2.8315954208374025,2.9049999713897707,0.24855709075927735]},{"bufferView":1,"type":"SCALAR","componentType":5125,"count":168},{"bufferView":2,"type":"VEC3","componentType":5126,"count":72},{"bufferView":3,"type":"VEC2","componentType":5126,"count":72},{"bufferView":4,"type":"VEC3","componentType":5126,"count":646,"min":[2.369999885559082,1.0499999523162842,-0.6250000596046448],"max":[2.75,1.4300000667572022,0.6250000596046448]},{"bufferView":5,"type":"SCALAR","componentType":5125,"count":3168},{"bufferView":6,"type":"VEC3","componentType":5126,"count":646},{"bufferView":7,"type":"VEC2","componentType":5126,"count":646}],"materials":[{"pbrMetallicRoughness":{"metallicFactor":0.5,"roughnessFactor":0.5}},{"name":"house_walls","emissiveFactor":[0.0,0.0,0.0],"alphaMode":"OPAQUE","doubleSided":false,"pbrMetallicRoughness":{"baseColorFactor":[1.0,1.0,1.0,1.0],"metallicFactor":1.0,"roughnessFactor":1.0}},{"name":"Default","emissiveFactor":[0.0,0.0,0.0],"alphaMode":"OPAQUE","doubleSided":false,"pbrMetallicRoughness":{"baseColorFactor":[1.0,1.0,1.0,1.0],"metallicFactor":1.0,"roughnessFactor":1.0}}],"cameras":[{"name":"Camera","type":"perspective","perspective":{"znear":0.01,"yfov":0.8726}}]}