{"asset":{"generator":"Foundry Modo 16.1v7","version":"2.0"},"extensionsUsed":["KHR_texture_transform"],"scene":0,"scenes":[{"nodes":[0,1,2,3]}],"nodes":[{"name":"floors","mesh":0},{"name":"water","mesh":1},{"name":"walls","mesh":2},{"name":"Camera","matrix":[1.0,0.0,0.0,0.0,0.0,0.9961947202682495,-0.08715574443340302,0.0,0.0,0.08715574443340302,0.9961947202682495,0.0,0.0,0.75,4.0,1.0],"camera":0}],"meshes":[{"primitives":[{"indices":1,"mode":4,"material":1,"attributes":{"POSITION":0,"NORMAL":2,"TEXCOORD_0":3}}]},{"primitives":[{"indices":5,"mode":4,"material":2,"attributes":{"POSITION":4,"NORMAL":6,"TEXCOORD_0":7}}]},{"primitives":[{"indices":9,"mode":4,"material":3,"attributes":{"POSITION":8,"NORMAL":10,"TEXCOORD_0":11}},{"indices":13,"mode":4,"material":4,"attributes":{"POSITION":12,"NORMAL":14,"TEXCOORD_0":15}}]}],"buffers":[{"byteLength":51448,"uri":"level-one.bin"}],"bufferViews":[{"buffer":0,"byteLength":48},{"buffer":0,"byteLength":24,"byteOffset":48},{"buffer":0,"byteLength":48,"byteOffset":72},{"buffer":0,"byteLength":32,"byteOffset":120},{"buffer":0,"byteLength":5688,"byteOffset":152},{"buffer":0,"byteLength":8616,"byteOffset":5840},{"buffer":0,"byteLength":5688,"byteOffset":14456},{"buffer":0,"byteLength":3792,"byteOffset":20144},{"buffer":0,"byteLength":6384,"byteOffset":23936},{"buffer":0,"byteLength":3192,"byteOffset":30320},{"buffer":0,"byteLength":6384,"byteOffset":33512},{"buffer":0,"byteLength":4256,"byteOffset":39896},{"buffer":0,"byteLength":2304,"byteOffset":44152},{"buffer":0,"byteLength":1152,"byteOffset":46456},{"buffer":0,"byteLength":2304,"byteOffset":47608},{"buffer":0,"byteLength":1536,"byteOffset":49912}],"accessors":[{"bufferView":0,"type":"VEC3","componentType":5126,"count":4,"min":[-50.150001525878909,-0.006049981340765953,-28.149999618530275],"max":[50.45000076293945,-0.006049981340765953,28.299999237060548]},{"bufferView":1,"type":"SCALAR","componentType":5125,"count":6},{"bufferView":2,"type":"VEC3","componentType":5126,"count":4},{"bufferView":3,"type":"VEC2","componentType":5126,"count":4},{"bufferView":4,"type":"VEC3","componentType":5126,"count":474,"min":[-26.350000381469728,0.25,-1.75],"max":[44.418701171875,0.30000001192092898,25.2371826171875]},{"bufferView":5,"type":"SCALAR","componentType":5125,"count":2154},{"bufferView":6,"type":"VEC3","componentType":5126,"count":474},{"bufferView":7,"type":"VEC2","componentType":5126,"count":474},{"bufferView":8,"type":"VEC3","componentType":5126,"count":532,"min":[-50.38209915161133,-1.9984014443252819e-15,-29.0],"max":[46.840553283691409,6.195000171661377,26.521331787109376]},{"bufferView":9,"type":"SCALAR","componentType":5125,"count":798},{"bufferView":10,"type":"VEC3","componentType":5126,"count":532},{"bufferView":11,"type":"VEC2","componentType":5126,"count":532},{"bufferView":12,"type":"VEC3","componentType":5126,"count":192,"min":[-23.098556518554689,0.0,-27.557605743408204],"max":[33.6485595703125,2.890000104904175,-20.89564323425293]},{"bufferView":13,"type":"SCALAR","componentType":5125,"count":288},{"bufferView":14,"type":"VEC3","componentType":5126,"count":192},{"bufferView":15,"type":"VEC2","componentType":5126,"count":192}],"materials":[{"pbrMetallicRoughness":{"metallicFactor":0.5,"roughnessFactor":0.5}},{"name":"grass","emissiveFactor":[0.0,0.0,0.0],"alphaMode":"OPAQUE","doubleSided":false,"pbrMetallicRoughness":{"baseColorFactor":[1.0,1.0,1.0,1.0],"metallicFactor":1.0,"roughnessFactor":1.0}},{"name":"Default","emissiveFactor":[0.0,0.0,0.0],"alphaMode":"OPAQUE","doubleSided":false,"pbrMetallicRoughness":{"baseColorFactor":[1.0,1.0,1.0,1.0],"metallicFactor":1.0,"roughnessFactor":1.0}},{"name":"walls","emissiveFactor":[0.0,0.0,0.0],"alphaMode":"OPAQUE","doubleSided":false,"pbrMetallicRoughness":{"baseColorFactor":[1.0,1.0,1.0,1.0],"metallicFactor":1.0,"roughnessFactor":1.0}},{"name":"house_walls","emissiveFactor":[0.0,0.0,0.0],"alphaMode":"OPAQUE","doubleSided":false,"pbrMetallicRoughness":{"baseColorFactor":[1.0,1.0,1.0,1.0],"metallicFactor":1.0,"roughnessFactor":1.0}}],"cameras":[{"name":"Camera","type":"perspective","perspective":{"znear":0.01,"yfov":0.8726}}]}