{
	"asset":{
		"version":"2.0",
		"generator":"Houdini GLTF 2.0 Exporter"
	},
	"accessors":[
		{
			"bufferView":0,
			"componentType":5123,
			"count":1104,
			"type":"SCALAR",
			"min":[0
			],
			"max":[735
			]
		},
		{
			"bufferView":1,
			"componentType":5126,
			"count":736,
			"type":"VEC3",
			"min":[-0.5,0,-0.733231246
			],
			"max":[0.5,1.20966089,0.733231246
			]
		},
		{
			"bufferView":2,
			"componentType":5126,
			"count":736,
			"type":"VEC4",
			"min":[-1,-0.707106769,-1,1
			],
			"max":[1,0.707106769,1,1
			]
		},
		{
			"bufferView":3,
			"componentType":5126,
			"count":736,
			"type":"VEC2",
			"min":[-0.889971137,-0.0707149506
			],
			"max":[0.889971316,1.70566297
			]
		},
		{
			"bufferView":4,
			"componentType":5126,
			"count":736,
			"type":"VEC3",
			"min":[-1,-1,-1
			],
			"max":[1,1,1
			]
		},
		{
			"bufferView":5,
			"componentType":5126,
			"count":736,
			"type":"VEC3",
			"min":[0,0,0
			],
			"max":[1,1,1
			]
		}
	],
	"buffers":[
		{
			"uri":"sheep_data.bin",
			"byteLength":46368,
			"name":"main_buffer"
		}
	],
	"bufferViews":[
		{
			"buffer":0,
			"byteLength":2208,
			"target":34963
		},
		{
			"buffer":0,
			"byteOffset":2208,
			"byteLength":8832,
			"target":34962
		},
		{
			"buffer":0,
			"byteOffset":11040,
			"byteLength":11776,
			"target":34962
		},
		{
			"buffer":0,
			"byteOffset":22816,
			"byteLength":5888,
			"target":34962
		},
		{
			"buffer":0,
			"byteOffset":28704,
			"byteLength":8832,
			"target":34962
		},
		{
			"buffer":0,
			"byteOffset":37536,
			"byteLength":8832,
			"target":34962
		}
	],
	"nodes":[
		{
			"name":"geo1",
			"mesh":0
		}
	],
	"meshes":[
		{
			"primitives":[
				{
					"attributes":{
						"POSITION":1,
						"COLOR_0":5,
						"TANGENT":2,
						"NORMAL":4,
						"TEXCOORD_0":3
					},
					"indices":0,
					"material":0
				}
			],
			"name":"uvtexture1"
		}
	],
	"materials":[
		{
			"name":"sheep",
			"pbrMetallicRoughness":{
				"baseColorFactor":[0.200000003,0.200000003,0.200000003,1
				],
				"metallicFactor":0,
				"roughnessFactor":0.300000012
			}
		}
	],
	"scenes":[
		{
			"nodes":[0
			]
		}
	],
	"scene":0
}
