{
	"asset":{
		"version":"2.0",
		"generator":"Houdini GLTF 2.0 Exporter"
	},
	"accessors":[
		{
			"bufferView":0,
			"componentType":5125,
			"count":1651362,
			"type":"SCALAR",
			"min":[0
			],
			"max":[292523
			]
		},
		{
			"bufferView":1,
			"componentType":5126,
			"count":292524,
			"type":"VEC3",
			"min":[-64,-1.98329329,-64
			],
			"max":[64,3.76418209,64
			]
		},
		{
			"bufferView":2,
			"componentType":5126,
			"count":292524,
			"type":"VEC4",
			"min":[-0.999841988,-0.999993742,-0.999849796,1
			],
			"max":[1,0.999998987,0.999822676,1
			]
		},
		{
			"bufferView":3,
			"componentType":5126,
			"count":292524,
			"type":"VEC2",
			"min":[0,0
			],
			"max":[1,1
			]
		},
		{
			"bufferView":4,
			"componentType":5126,
			"count":292524,
			"type":"VEC3",
			"min":[-1,-1,-1
			],
			"max":[1,1,1
			]
		},
		{
			"bufferView":5,
			"componentType":5125,
			"count":292524,
			"type":"SCALAR",
			"min":[0
			],
			"max":[9
			]
		},
		{
			"bufferView":6,
			"componentType":5126,
			"count":292524,
			"type":"VEC3",
			"min":[0,0.0666820556,0
			],
			"max":[0.629000008,0.522000015,0.314500004
			]
		}
	],
	"buffers":[
		{
			"uri":"world_data.bin",
			"byteLength":25326984,
			"name":"main_buffer"
		}
	],
	"bufferViews":[
		{
			"buffer":0,
			"byteLength":6605448,
			"target":34963
		},
		{
			"buffer":0,
			"byteOffset":6605448,
			"byteLength":3510288,
			"target":34962
		},
		{
			"buffer":0,
			"byteOffset":10115736,
			"byteLength":4680384,
			"target":34962
		},
		{
			"buffer":0,
			"byteOffset":14796120,
			"byteLength":2340192,
			"target":34962
		},
		{
			"buffer":0,
			"byteOffset":17136312,
			"byteLength":3510288,
			"target":34962
		},
		{
			"buffer":0,
			"byteOffset":20646600,
			"byteLength":1170096,
			"target":34962
		},
		{
			"buffer":0,
			"byteOffset":21816696,
			"byteLength":3510288,
			"target":34962
		}
	],
	"nodes":[
		{
			"name":"world",
			"mesh":0
		}
	],
	"meshes":[
		{
			"primitives":[
				{
					"attributes":{
						"POSITION":1,
						"COLOR_0":6,
						"TANGENT":2,
						"NORMAL":4,
						"TEXCOORD_0":3,
						"_class":5
					},
					"indices":0
				}
			],
			"name":"uvtexture1"
		}
	],
	"scenes":[
		{
			"nodes":[0
			]
		}
	],
	"scene":0
}
