{
	"asset":{
		"version":"2.0",
		"generator":"Houdini GLTF 2.0 Exporter"
	},
	"accessors":[
		{
			"bufferView":0,
			"componentType":5123,
			"count":756,
			"type":"SCALAR",
			"min":[0
			],
			"max":[503
			]
		},
		{
			"bufferView":1,
			"componentType":5126,
			"count":504,
			"type":"VEC3",
			"min":[-0.541242421,0,-0.244862705
			],
			"max":[0.541242421,2.06151867,0.24486272
			]
		},
		{
			"bufferView":2,
			"componentType":5126,
			"count":504,
			"type":"VEC3",
			"min":[-0.999835491,-1,-0.999608397
			],
			"max":[0.999835491,1,0.999608397
			]
		},
		{
			"bufferView":3,
			"componentType":5126,
			"count":504,
			"type":"VEC3",
			"min":[0.425825477,0.411325485,0.396825492
			],
			"max":[0.425825477,0.411325485,0.396825492
			]
		}
	],
	"buffers":[
		{
			"uri":"sheperd_data.bin",
			"byteLength":19656,
			"name":"main_buffer"
		}
	],
	"bufferViews":[
		{
			"buffer":0,
			"byteLength":1512,
			"target":34963
		},
		{
			"buffer":0,
			"byteOffset":1512,
			"byteLength":6048,
			"target":34962
		},
		{
			"buffer":0,
			"byteOffset":7560,
			"byteLength":6048,
			"target":34962
		},
		{
			"buffer":0,
			"byteOffset":13608,
			"byteLength":6048,
			"target":34962
		}
	],
	"nodes":[
		{
			"name":"sheperd",
			"mesh":0
		}
	],
	"meshes":[
		{
			"primitives":[
				{
					"attributes":{
						"POSITION":1,
						"COLOR_0":3,
						"NORMAL":2
					},
					"indices":0
				}
			],
			"name":"color1"
		}
	],
	"scenes":[
		{
			"nodes":[0
			]
		}
	],
	"scene":0
}
