{"asset":{"generator":"Foundry Modo 16.1v7","version":"2.0"},"extensionsUsed":["KHR_texture_transform"],"scene":0,"scenes":[{"nodes":[0,1]}],"nodes":[{"name":"tree","mesh":0},{"name":"Camera","matrix":[1.0,0.0,0.0,0.0,0.0,0.9961947202682495,-0.08715574443340302,0.0,0.0,0.08715574443340302,0.9961947202682495,0.0,0.0,0.75,4.0,1.0],"camera":0}],"meshes":[{"primitives":[{"indices":1,"mode":4,"material":1,"attributes":{"POSITION":0,"NORMAL":2,"TEXCOORD_0":3}},{"indices":5,"mode":4,"material":2,"attributes":{"POSITION":4,"NORMAL":6,"TEXCOORD_0":7}}]}],"buffers":[{"byteLength":24656,"uri":"tree_01_a.bin"}],"bufferViews":[{"buffer":0,"byteLength":1452},{"buffer":0,"byteLength":1680,"byteOffset":1452},{"buffer":0,"byteLength":1452,"byteOffset":3132},{"buffer":0,"byteLength":968,"byteOffset":4584},{"buffer":0,"byteLength":4788,"byteOffset":5552},{"buffer":0,"byteLength":6336,"byteOffset":10340},{"buffer":0,"byteLength":4788,"byteOffset":16676},{"buffer":0,"byteLength":3192,"byteOffset":21464}],"accessors":[{"bufferView":0,"type":"VEC3","componentType":5126,"count":121,"min":[-0.6239156723022461,-0.013080816715955735,-0.6508720517158508],"max":[1.0643033981323243,2.9869191646575929,0.6062137484550476]},{"bufferView":1,"type":"SCALAR","componentType":5125,"count":420},{"bufferView":2,"type":"VEC3","componentType":5126,"count":121},{"bufferView":3,"type":"VEC2","componentType":5126,"count":121},{"bufferView":4,"type":"VEC3","componentType":5126,"count":399,"min":[-2.273165702819824,2.437647581100464,-1.861068606376648],"max":[2.273165702819824,6.053081035614014,2.2210686206817629]},{"bufferView":5,"type":"SCALAR","componentType":5125,"count":1584},{"bufferView":6,"type":"VEC3","componentType":5126,"count":399},{"bufferView":7,"type":"VEC2","componentType":5126,"count":399}],"materials":[{"pbrMetallicRoughness":{"metallicFactor":0.5,"roughnessFactor":0.5}},{"name":"bark","emissiveFactor":[0.0,0.0,0.0],"alphaMode":"OPAQUE","doubleSided":false,"pbrMetallicRoughness":{"baseColorFactor":[1.0,1.0,1.0,1.0],"metallicFactor":1.0,"roughnessFactor":1.0}},{"name":"leaves","emissiveFactor":[0.0,0.0,0.0],"alphaMode":"OPAQUE","doubleSided":false,"pbrMetallicRoughness":{"baseColorFactor":[1.0,1.0,1.0,1.0],"metallicFactor":1.0,"roughnessFactor":1.0}}],"cameras":[{"name":"Camera","type":"perspective","perspective":{"znear":0.01,"yfov":0.8726}}]}