{"asset":{"generator":"Foundry Modo 16.1v7","version":"2.0"},"extensionsUsed":["KHR_texture_transform"],"scene":0,"scenes":[{"nodes":[0,1,2]}],"nodes":[{"name":"cabinet_01_a_door","mesh":0},{"name":"cabinet_01_a","mesh":1},{"name":"Camera","matrix":[1.0,0.0,0.0,0.0,0.0,0.9961947202682495,-0.08715574443340302,0.0,0.0,0.08715574443340302,0.9961947202682495,0.0,0.0,0.75,4.0,1.0],"camera":0}],"meshes":[{"primitives":[{"indices":1,"mode":4,"material":1,"attributes":{"POSITION":0,"NORMAL":2,"TEXCOORD_0":3}},{"indices":5,"mode":4,"material":2,"attributes":{"POSITION":4,"NORMAL":6,"TEXCOORD_0":7}}]},{"primitives":[{"indices":9,"mode":4,"material":1,"attributes":{"POSITION":8,"NORMAL":10,"TEXCOORD_0":11}}]}],"buffers":[{"byteLength":23520,"uri":"cabinet_01_a.bin"}],"bufferViews":[{"buffer":0,"byteLength":288},{"buffer":0,"byteLength":144,"byteOffset":288},{"buffer":0,"byteLength":288,"byteOffset":432},{"buffer":0,"byteLength":192,"byteOffset":720},{"buffer":0,"byteLength":3876,"byteOffset":912},{"buffer":0,"byteLength":6336,"byteOffset":4788},{"buffer":0,"byteLength":3876,"byteOffset":11124},{"buffer":0,"byteLength":2584,"byteOffset":15000},{"buffer":0,"byteLength":1740,"byteOffset":17584},{"buffer":0,"byteLength":1296,"byteOffset":19324},{"buffer":0,"byteLength":1740,"byteOffset":20620},{"buffer":0,"byteLength":1160,"byteOffset":22360}],"accessors":[{"bufferView":0,"type":"VEC3","componentType":5126,"count":24,"min":[-0.5126338005065918,0.5961312055587769,0.37055179476737978],"max":[0.542533814907074,1.6762688159942628,0.5563482046127319]},{"bufferView":1,"type":"SCALAR","componentType":5125,"count":36},{"bufferView":2,"type":"VEC3","componentType":5126,"count":24},{"bufferView":3,"type":"VEC2","componentType":5126,"count":24},{"bufferView":4,"type":"VEC3","componentType":5126,"count":323,"min":[0.3512876331806183,1.035250186920166,0.5550187230110169],"max":[0.4634873867034912,1.1474498510360718,0.697043776512146]},{"bufferView":5,"type":"SCALAR","componentType":5125,"count":1584},{"bufferView":6,"type":"VEC3","componentType":5126,"count":323},{"bufferView":7,"type":"VEC2","componentType":5126,"count":323},{"bufferView":8,"type":"VEC3","componentType":5126,"count":145,"min":[-0.6433071494102478,-0.026841100305318834,-0.5974606871604919],"max":[0.67320716381073,1.809709072113037,0.5723768472671509]},{"bufferView":9,"type":"SCALAR","componentType":5125,"count":324},{"bufferView":10,"type":"VEC3","componentType":5126,"count":145},{"bufferView":11,"type":"VEC2","componentType":5126,"count":145}],"materials":[{"pbrMetallicRoughness":{"metallicFactor":0.5,"roughnessFactor":0.5}},{"name":"house_walls","emissiveFactor":[0.0,0.0,0.0],"alphaMode":"OPAQUE","doubleSided":false,"pbrMetallicRoughness":{"baseColorFactor":[1.0,1.0,1.0,1.0],"metallicFactor":1.0,"roughnessFactor":1.0}},{"name":"Default","emissiveFactor":[0.0,0.0,0.0],"alphaMode":"OPAQUE","doubleSided":false,"pbrMetallicRoughness":{"baseColorFactor":[1.0,1.0,1.0,1.0],"metallicFactor":1.0,"roughnessFactor":1.0}}],"cameras":[{"name":"Camera","type":"perspective","perspective":{"znear":0.01,"yfov":0.8726}}]}