{"asset":{"generator":"Foundry Modo 16.1v7","version":"2.0"},"extensionsUsed":["KHR_texture_transform"],"scene":0,"scenes":[{"nodes":[0,1]}],"nodes":[{"name":"Mesh","mesh":0},{"name":"Camera","matrix":[1.0,0.0,0.0,0.0,0.0,0.9961947202682495,-0.08715574443340302,0.0,0.0,0.08715574443340302,0.9961947202682495,0.0,0.0,0.75,4.0,1.0],"camera":0}],"meshes":[{"primitives":[{"indices":1,"mode":4,"material":1,"attributes":{"POSITION":0,"NORMAL":2,"TEXCOORD_0":3}}]}],"buffers":[{"byteLength":16416,"uri":"level-one.bin"}],"bufferViews":[{"buffer":0,"byteLength":5184},{"buffer":0,"byteLength":2592,"byteOffset":5184},{"buffer":0,"byteLength":5184,"byteOffset":7776},{"buffer":0,"byteLength":3456,"byteOffset":12960}],"accessors":[{"bufferView":0,"type":"VEC3","componentType":5126,"count":432,"min":[-34.58209991455078,-0.04500000178813934,-26.521331787109376],"max":[34.58209991455078,2.0899999141693117,26.68673324584961]},{"bufferView":1,"type":"SCALAR","componentType":5125,"count":648},{"bufferView":2,"type":"VEC3","componentType":5126,"count":432},{"bufferView":3,"type":"VEC2","componentType":5126,"count":432}],"materials":[{"pbrMetallicRoughness":{"metallicFactor":0.5,"roughnessFactor":0.5}},{"name":"Default","emissiveFactor":[0.0,0.0,0.0],"alphaMode":"OPAQUE","doubleSided":false,"pbrMetallicRoughness":{"baseColorFactor":[1.0,1.0,1.0,1.0],"metallicFactor":1.0,"roughnessFactor":1.0}}],"cameras":[{"name":"Camera","type":"perspective","perspective":{"znear":0.01,"yfov":0.8726}}]}