{"asset":{"generator":"Foundry Modo 16.1v7","version":"2.0"},"extensionsUsed":["KHR_texture_transform"],"scene":0,"scenes":[{"nodes":[0,1]}],"nodes":[{"name":"trampoline","mesh":0},{"name":"Camera","matrix":[1.0,0.0,0.0,0.0,0.0,0.9961947202682495,-0.08715574443340302,0.0,0.0,0.08715574443340302,0.9961947202682495,0.0,0.0,0.75,4.0,1.0],"camera":0}],"meshes":[{"primitives":[{"indices":1,"mode":4,"material":1,"attributes":{"POSITION":0,"NORMAL":2,"TEXCOORD_0":3}},{"indices":5,"mode":4,"material":2,"attributes":{"POSITION":4,"NORMAL":6,"TEXCOORD_0":7}},{"indices":9,"mode":4,"material":3,"attributes":{"POSITION":8,"NORMAL":10,"TEXCOORD_0":11}}]}],"buffers":[{"byteLength":47760,"uri":"trampoline.bin"}],"bufferViews":[{"buffer":0,"byteLength":10368},{"buffer":0,"byteLength":5184,"byteOffset":10368},{"buffer":0,"byteLength":10368,"byteOffset":15552},{"buffer":0,"byteLength":6912,"byteOffset":25920},{"buffer":0,"byteLength":288,"byteOffset":32832},{"buffer":0,"byteLength":144,"byteOffset":33120},{"buffer":0,"byteLength":288,"byteOffset":33264},{"buffer":0,"byteLength":192,"byteOffset":33552},{"buffer":0,"byteLength":4032,"byteOffset":33744},{"buffer":0,"byteLength":3264,"byteOffset":37776},{"buffer":0,"byteLength":4032,"byteOffset":41040},{"buffer":0,"byteLength":2688,"byteOffset":45072}],"accessors":[{"bufferView":0,"type":"VEC3","componentType":5126,"count":864,"min":[-1.881225347518921,0.5448750257492065,-1.6012251377105713],"max":[1.901224970817566,0.5751250386238098,1.6512250900268555]},{"bufferView":1,"type":"SCALAR","componentType":5125,"count":1296},{"bufferView":2,"type":"VEC3","componentType":5126,"count":864},{"bufferView":3,"type":"VEC2","componentType":5126,"count":864},{"bufferView":4,"type":"VEC3","componentType":5126,"count":24,"min":[-1.4750001430511475,0.5099999904632568,-1.25],"max":[1.4749999046325684,0.5600000619888306,1.25]},{"bufferView":5,"type":"SCALAR","componentType":5125,"count":36},{"bufferView":6,"type":"VEC3","componentType":5126,"count":24},{"bufferView":7,"type":"VEC2","componentType":5126,"count":24},{"bufferView":8,"type":"VEC3","componentType":5126,"count":336,"min":[-2.042875051498413,-0.005000016652047634,-1.7312500476837159],"max":[2.042875051498413,0.5850000381469727,1.7312500476837159]},{"bufferView":9,"type":"SCALAR","componentType":5125,"count":816},{"bufferView":10,"type":"VEC3","componentType":5126,"count":336},{"bufferView":11,"type":"VEC2","componentType":5126,"count":336}],"materials":[{"pbrMetallicRoughness":{"metallicFactor":0.5,"roughnessFactor":0.5}},{"name":"metal_springs","emissiveFactor":[0.0,0.0,0.0],"alphaMode":"OPAQUE","doubleSided":false,"pbrMetallicRoughness":{"baseColorFactor":[1.0,1.0,1.0,1.0],"metallicFactor":1.0,"roughnessFactor":1.0}},{"name":"canvas","emissiveFactor":[0.0,0.0,0.0],"alphaMode":"OPAQUE","doubleSided":false,"pbrMetallicRoughness":{"baseColorFactor":[1.0,1.0,1.0,1.0],"metallicFactor":1.0,"roughnessFactor":1.0}},{"name":"blue_metal","emissiveFactor":[0.0,0.0,0.0],"alphaMode":"OPAQUE","doubleSided":false,"pbrMetallicRoughness":{"baseColorFactor":[1.0,1.0,1.0,1.0],"metallicFactor":1.0,"roughnessFactor":1.0}}],"cameras":[{"name":"Camera","type":"perspective","perspective":{"znear":0.01,"yfov":0.8726}}]}