{"asset":{"generator":"Foundry Modo 16.1v7","version":"2.0"},"extensionsUsed":["KHR_texture_transform"],"scene":0,"scenes":[{"nodes":[0,1]}],"nodes":[{"name":"flower_bed","mesh":0},{"name":"Camera","matrix":[1.0,0.0,0.0,0.0,0.0,0.9961947202682495,-0.08715574443340302,0.0,0.0,0.08715574443340302,0.9961947202682495,0.0,0.0,0.75,4.0,1.0],"camera":0}],"meshes":[{"primitives":[{"indices":1,"mode":4,"material":1,"attributes":{"POSITION":0,"NORMAL":2,"TEXCOORD_0":3}}]}],"buffers":[{"byteLength":3696,"uri":"flower_bed_01_a.bin"}],"bufferViews":[{"buffer":0,"byteLength":1152},{"buffer":0,"byteLength":624,"byteOffset":1152},{"buffer":0,"byteLength":1152,"byteOffset":1776},{"buffer":0,"byteLength":768,"byteOffset":2928}],"accessors":[{"bufferView":0,"type":"VEC3","componentType":5126,"count":96,"min":[-2.0249996185302736,-0.020000360906124116,-1.375],"max":[2.0249996185302736,0.9503983855247498,1.375]},{"bufferView":1,"type":"SCALAR","componentType":5125,"count":156},{"bufferView":2,"type":"VEC3","componentType":5126,"count":96},{"bufferView":3,"type":"VEC2","componentType":5126,"count":96}],"materials":[{"pbrMetallicRoughness":{"metallicFactor":0.5,"roughnessFactor":0.5}},{"name":"Default","emissiveFactor":[0.0,0.0,0.0],"alphaMode":"OPAQUE","doubleSided":false,"pbrMetallicRoughness":{"baseColorFactor":[1.0,1.0,1.0,1.0],"metallicFactor":1.0,"roughnessFactor":1.0}}],"cameras":[{"name":"Camera","type":"perspective","perspective":{"znear":0.01,"yfov":0.8726}}]}