{"asset":{"generator":"Foundry Modo 16.1v7","version":"2.0"},"extensionsUsed":["KHR_texture_transform"],"scene":0,"scenes":[{"nodes":[0,1]}],"nodes":[{"name":"gravestone","mesh":0},{"name":"Camera","matrix":[1.0,0.0,0.0,0.0,0.0,0.9961947202682495,-0.08715574443340302,0.0,0.0,0.08715574443340302,0.9961947202682495,0.0,0.0,0.75,4.0,1.0],"camera":0}],"meshes":[{"primitives":[{"indices":1,"mode":4,"material":1,"attributes":{"POSITION":0,"NORMAL":2,"TEXCOORD_0":3}}]}],"buffers":[{"byteLength":2320,"uri":"gravestone.bin"}],"bufferViews":[{"buffer":0,"byteLength":672},{"buffer":0,"byteLength":528,"byteOffset":672},{"buffer":0,"byteLength":672,"byteOffset":1200},{"buffer":0,"byteLength":448,"byteOffset":1872}],"accessors":[{"bufferView":0,"type":"VEC3","componentType":5126,"count":56,"min":[-0.679999828338623,-0.009999999776482582,-0.2443997859954834],"max":[0.679999828338623,1.4900000095367432,0.2443997859954834]},{"bufferView":1,"type":"SCALAR","componentType":5125,"count":132},{"bufferView":2,"type":"VEC3","componentType":5126,"count":56},{"bufferView":3,"type":"VEC2","componentType":5126,"count":56}],"materials":[{"pbrMetallicRoughness":{"metallicFactor":0.5,"roughnessFactor":0.5}},{"name":"Default","emissiveFactor":[0.0,0.0,0.0],"alphaMode":"OPAQUE","doubleSided":false,"pbrMetallicRoughness":{"baseColorFactor":[1.0,1.0,1.0,1.0],"metallicFactor":1.0,"roughnessFactor":1.0}}],"cameras":[{"name":"Camera","type":"perspective","perspective":{"znear":0.01,"yfov":0.8726}}]}